<?xml version="1.0" encoding="utf-8"?>
<!-- Generator: Adobe Illustrator 16.0.0, SVG Export Plug-In . SVG Version: 6.00 Build 0)  -->
<!DOCTYPE svg PUBLIC "-//W3C//DTD SVG 1.1//EN" "http://www.w3.org/Graphics/SVG/1.1/DTD/svg11.dtd">
<svg version="1.1" id="Layer_1" xmlns="http://www.w3.org/2000/svg" xmlns:xlink="http://www.w3.org/1999/xlink" x="0px" y="0px"
	 width="58.93px" height="27.215px" viewBox="0 0 58.93 27.215" enable-background="new 0 0 58.93 27.215" xml:space="preserve">
<g>
	<path fill="#FFFFFF" d="M15.927,13.038C15.816,5.662,3.866,7.809,3.866,7.809V0H0v27.173h3.866V9.351l4.905-0.11
		c3.634-0.11,3.192,4.346,3.192,4.346l0.055,13.587h3.908C15.927,27.173,16.037,20.414,15.927,13.038z"/>
	<path fill="#FFFFFF" d="M25.931,18.289c1.418-0.033,2.831-0.029,4.248-0.031c1.57-0.002,3.383-0.202,4.098-1.823
		c0.668-1.514,0.059-3.341-0.621-4.742c-1.417-2.921-4.653-5.424-8.041-4.377c-1.221,0.377-2.865,1.229-3.743,2.171
		c-2.228,2.392-1.899,6.038-1.82,9.054c0.067,2.58,0.456,5.626,2.523,7.44c1.748,1.534,4.262,1.189,6.392,1.216
		c1.703,0.021,4.556,0.255,5.322-1.761c-0.121,0.317-1.411,0.071-1.657,0.061c-1.082-0.046-2.166-0.042-3.249-0.053
		c-0.606-0.005-1.213-0.021-1.818-0.056c-1.004-0.059-2.038-0.197-2.948-0.65c-0.5-0.249-0.985-0.626-1.346-1.054
		c-0.369-0.447-0.691-1.01-0.905-1.549c-0.238-0.602-0.39-1.257-0.251-1.9C22.56,18.158,24.232,18.328,25.931,18.289z M27.663,9.13
		c5.395-0.11,4.403,7.156,4.403,7.156s-9.964,0.166-9.964,0C22.103,13.699,22.269,9.24,27.663,9.13z"/>
	<path fill="#FFFFFF" d="M58.822,9.336c0,0-0.119-1.869-1.629-1.948s-1.431,1.511-1.431,2.623s1.948-1.391,1.868,1.471
		s-1.392,0.516-1.511,4.609s0.756,8.228-1.391,8.188s-4.969-0.238-5.008-3.775s0.08-5.246,0.08-5.246s0.039-1.948-1.471-2.027
		c-1.51,0.079-1.471,2.027-1.471,2.027s0.119,1.709,0.08,5.246s-2.861,3.735-5.008,3.775s-1.271-4.094-1.391-8.188
		s-1.431-1.748-1.511-4.609s1.868-0.358,1.868-1.471s0.079-2.702-1.431-2.623S37.84,9.336,37.84,9.336
		c-0.204,3.201-0.058,6.444-0.038,9.65c0.012,1.876-0.071,3.97,0.838,5.673c0.583,1.089,1.515,2.08,2.856,2.004
		c2.822-0.159,4.571-2.465,6.479-2.504h0.713c1.907,0.039,3.656,2.345,6.479,2.504c1.342,0.076,2.273-0.915,2.856-2.004
		c0.909-1.703,0.826-3.797,0.838-5.673C58.88,15.78,59.026,12.537,58.822,9.336z"/>
</g>
</svg>
