<?xml version="1.0" encoding="utf-8"?>
<!-- Generator: Adobe Illustrator 16.0.0, SVG Export Plug-In . SVG Version: 6.00 Build 0)  -->
<!DOCTYPE svg PUBLIC "-//W3C//DTD SVG 1.1//EN" "http://www.w3.org/Graphics/SVG/1.1/DTD/svg11.dtd">
<svg version="1.1" id="Layer_1" xmlns="http://www.w3.org/2000/svg" xmlns:xlink="http://www.w3.org/1999/xlink" x="0px" y="0px"
	 width="37.638px" height="37.241px" viewBox="0 0 37.638 37.241" enable-background="new 0 0 37.638 37.241" xml:space="preserve">
<g>
	<path fill="#FFFFFF" d="M11.003,37.241c-0.137,0-0.274-0.028-0.405-0.086c-0.369-0.163-0.604-0.534-0.595-0.938l0.27-10.945H6.627
		C2.973,25.271,0,22.385,0,18.836V6.437C0,2.888,2.973,0,6.627,0h24.384c3.654,0,6.627,2.888,6.627,6.437v12.399
		c0,3.549-2.973,6.436-6.627,6.436H23.95L11.693,36.965C11.503,37.146,11.255,37.241,11.003,37.241z M6.627,2
		C4.075,2,2,3.99,2,6.437v12.399c0,2.445,2.075,4.436,4.627,4.436h4.67c0.27,0,0.527,0.108,0.716,0.302
		c0.188,0.192,0.29,0.453,0.284,0.723l-0.235,9.553l10.798-10.301c0.187-0.178,0.434-0.276,0.69-0.276h7.461
		c2.552,0,4.627-1.99,4.627-4.436V6.437C35.638,3.99,33.563,2,31.011,2H6.627z"/>
</g>
<g>
	<path fill="#FFFFFF" d="M30.838,9.191H7.741c-0.414,0-0.75-0.336-0.75-0.75s0.336-0.75,0.75-0.75h23.097
		c0.414,0,0.75,0.336,0.75,0.75S31.252,9.191,30.838,9.191z"/>
</g>
<g>
	<path fill="#FFFFFF" d="M30.838,13.999H7.741c-0.414,0-0.75-0.336-0.75-0.75s0.336-0.75,0.75-0.75h23.097
		c0.414,0,0.75,0.336,0.75,0.75S31.252,13.999,30.838,13.999z"/>
</g>
<g>
	<path fill="#FFFFFF" d="M24.149,18.807H7.741c-0.414,0-0.75-0.336-0.75-0.75s0.336-0.75,0.75-0.75h16.408
		c0.414,0,0.75,0.336,0.75,0.75S24.563,18.807,24.149,18.807z"/>
</g>
</svg>
