<?xml version="1.0" encoding="utf-8"?>
<!-- Generator: Adobe Illustrator 16.0.0, SVG Export Plug-In . SVG Version: 6.00 Build 0)  -->
<!DOCTYPE svg PUBLIC "-//W3C//DTD SVG 1.1//EN" "http://www.w3.org/Graphics/SVG/1.1/DTD/svg11.dtd">
<svg version="1.1" id="Layer_1" xmlns="http://www.w3.org/2000/svg" xmlns:xlink="http://www.w3.org/1999/xlink" x="0px" y="0px"
	 width="41.177px" height="46.566px" viewBox="0 0 41.177 46.566" enable-background="new 0 0 41.177 46.566" xml:space="preserve">
<g>
	<path fill="#FFFFFF" d="M4.116,2.985l36.879,0.209C41.845,0.896,39.441,0,39.441,0S9.446,0,4.744,0S0,3.821,0,3.821
		s0,35.221,0,38.146s3.28,4.599,3.28,4.599h37.715V6.539V6.121L4.431,6.539C1.713,4.867,4.116,2.985,4.116,2.985z M5.268,9.256
		h26.858l5.854,5.539v22.889l-6.271,5.33H5.268V9.256z"/>
	<g>
		<path fill="#FFFFFF" d="M15.693,19.125h10.682v2.943h-7.281v2.922h6.213v2.943h-6.213v3.074h7.281v2.943H15.693V19.125z"/>
	</g>
</g>
</svg>
