<?xml version="1.0" encoding="UTF-8" standalone="no"?>
<svg
   xmlns:dc="http://purl.org/dc/elements/1.1/"
   xmlns:cc="http://creativecommons.org/ns#"
   xmlns:rdf="http://www.w3.org/1999/02/22-rdf-syntax-ns#"
   xmlns:svg="http://www.w3.org/2000/svg"
   xmlns="http://www.w3.org/2000/svg"
   xmlns:sodipodi="http://sodipodi.sourceforge.net/DTD/sodipodi-0.dtd"
   xmlns:inkscape="http://www.inkscape.org/namespaces/inkscape"
   aria-hidden="true"
   focusable="false"
   data-prefix="far"
   data-icon="check-square"
   class="svg-inline--fa fa-check-square fa-w-14"
   role="img"
   viewBox="0 0 448 512"
   version="1.1"
   id="svg870"
   sodipodi:docname="icon_input.svg"
   inkscape:version="0.92.4 (5da689c313, 2019-01-14)">
  <metadata
     id="metadata876">
    <rdf:RDF>
      <cc:Work
         rdf:about="">
        <dc:format>image/svg+xml</dc:format>
        <dc:type
           rdf:resource="http://purl.org/dc/dcmitype/StillImage" />
        <dc:title></dc:title>
      </cc:Work>
    </rdf:RDF>
  </metadata>
  <defs
     id="defs874" />
  <sodipodi:namedview
     pagecolor="#ffffff"
     bordercolor="#666666"
     borderopacity="1"
     objecttolerance="10"
     gridtolerance="10"
     guidetolerance="10"
     inkscape:pageopacity="0"
     inkscape:pageshadow="2"
     inkscape:window-width="1290"
     inkscape:window-height="1029"
     id="namedview872"
     showgrid="false"
     inkscape:zoom="0.921875"
     inkscape:cx="356.54856"
     inkscape:cy="73.20118"
     inkscape:window-x="4450"
     inkscape:window-y="0"
     inkscape:window-maximized="0"
     inkscape:current-layer="svg870" />
  <path
     d="M 400,32 H 48 C 21.49,32 0,53.49 0,80 v 352 c 0,26.51 21.49,48 48,48 h 352 c 26.51,0 48,-21.49 48,-48 V 80 C 448,53.49 426.51,32 400,32 Z m 0,400 H 48 V 80 h 352 z"
     id="path868"
     style="fill:#ffffff"
     inkscape:connector-curvature="0"
     sodipodi:nodetypes="sssssssssccccc" />
  <g
     aria-label="T"
     transform="matrix(4.4238705,0,0,4.4238705,294.97959,-531.2067)"
     style="font-style:normal;font-weight:normal;font-size:40px;line-height:1.25;font-family:sans-serif;letter-spacing:0px;word-spacing:0px;fill:#000000;fill-opacity:1;stroke:none"
     id="flowRoot1424">
    <path
       d="m -29.733569,202.58524 6.023111,-1.79911 q 0.821333,-0.19556 1.251555,-0.74311 0.469334,-0.54756 0.469334,-1.408 v -42.90489 h -11.459556 q -0.743111,0 -1.134222,0.39111 -0.352,0.352 -0.547556,1.01689 l -2.816,8.56533 h -3.637333 v -15.136 H 9.494875 v 15.136 H 5.8575417 l -2.816,-8.56533 q -0.1955556,-0.62578 -0.5866667,-1.01689 -0.352,-0.39111 -1.0168889,-0.39111 H -10.178014 v 42.90489 q 0,0.86044 0.5084446,1.408 0.5475555,0.54755 1.2515555,0.74311 l 6.0231111,1.79911 v 2.73778 H -29.733569 Z"
       style="font-style:normal;font-variant:normal;font-weight:bold;font-stretch:normal;font-size:88px;font-family:'Sitka Heading';-inkscape-font-specification:'Sitka Heading Bold';fill:#ffffff"
       id="path1497"
       inkscape:connector-curvature="0" />
  </g>
</svg>
