<?xml version="1.0" encoding="UTF-8" standalone="no"?>
<svg
   xmlns:dc="http://purl.org/dc/elements/1.1/"
   xmlns:cc="http://creativecommons.org/ns#"
   xmlns:rdf="http://www.w3.org/1999/02/22-rdf-syntax-ns#"
   xmlns:svg="http://www.w3.org/2000/svg"
   xmlns="http://www.w3.org/2000/svg"
   xmlns:sodipodi="http://sodipodi.sourceforge.net/DTD/sodipodi-0.dtd"
   xmlns:inkscape="http://www.inkscape.org/namespaces/inkscape"
   aria-hidden="true"
   focusable="false"
   data-prefix="far"
   data-icon="calendar-alt"
   class="svg-inline--fa fa-calendar-alt fa-w-14"
   role="img"
   viewBox="0 0 448 490"
   version="1.1"
   id="svg4"
   sodipodi:docname="icon_button.svg"
   inkscape:version="0.92.4 (5da689c313, 2019-01-14)"
   width="448"
   height="490">
  <metadata
     id="metadata10">
    <rdf:RDF>
      <cc:Work
         rdf:about="">
        <dc:format>image/svg+xml</dc:format>
        <dc:type
           rdf:resource="http://purl.org/dc/dcmitype/StillImage" />
        <dc:title></dc:title>
      </cc:Work>
    </rdf:RDF>
  </metadata>
  <defs
     id="defs8" />
  <sodipodi:namedview
     pagecolor="#ffffff"
     bordercolor="#666666"
     borderopacity="1"
     objecttolerance="10"
     gridtolerance="10"
     guidetolerance="10"
     inkscape:pageopacity="0"
     inkscape:pageshadow="2"
     inkscape:window-width="1267"
     inkscape:window-height="2081"
     id="namedview6"
     showgrid="false"
     inkscape:zoom="1.3037281"
     inkscape:cx="209.31324"
     inkscape:cy="85.77708"
     inkscape:window-x="1912"
     inkscape:window-y="0"
     inkscape:window-maximized="0"
     inkscape:current-layer="svg4" />
  <rect
     style="fill:none;fill-opacity:1;stroke:none;stroke-width:9.4605484;stroke-linejoin:miter;stroke-miterlimit:4;stroke-dasharray:none;stroke-opacity:1;paint-order:stroke markers fill"
     id="rect825"
     width="448"
     height="478.25064"
     x="0"
     y="4.2724972" />
  <path
     style="fill:#ffffff;stroke-width:0.94536096"
     d="m 47.163372,26.625687 c -25.052071,0 -45.3773063,20.325282 -45.3773063,45.377214 V 404.77003 c 0,25.0519 20.3252353,45.37722 45.3773063,45.37722 H 260.14838 L 247.98979,404.77003 H 52.835566 c -3.11956,0 -5.672194,-2.55054 -5.672194,-5.6721 V 77.675023 c 0,-3.119984 2.552493,-5.672122 5.672194,-5.672122 H 374.25827 c 3.11953,0 5.67215,2.550415 5.67215,5.672122 V 265.51923 l 45.37729,27.05736 V 72.002901 c 0,-25.051932 -20.32525,-45.377214 -45.37729,-45.377214 H 191.12961 Z"
     id="path815-5"
     inkscape:connector-curvature="0"
     sodipodi:nodetypes="ssssccssssssccsscs" />
  <path
     style="color:#000000;font-style:normal;font-variant:normal;font-weight:normal;font-stretch:normal;font-size:medium;line-height:normal;font-family:sans-serif;font-variant-ligatures:normal;font-variant-position:normal;font-variant-caps:normal;font-variant-numeric:normal;font-variant-alternates:normal;font-feature-settings:normal;text-indent:0;text-align:start;text-decoration:none;text-decoration-line:none;text-decoration-style:solid;text-decoration-color:#000000;letter-spacing:normal;word-spacing:normal;text-transform:none;writing-mode:lr-tb;direction:ltr;text-orientation:mixed;dominant-baseline:auto;baseline-shift:baseline;text-anchor:start;white-space:normal;shape-padding:0;clip-rule:nonzero;display:inline;overflow:visible;visibility:visible;opacity:1;isolation:auto;mix-blend-mode:normal;color-interpolation:sRGB;color-interpolation-filters:linearRGB;solid-color:#000000;solid-opacity:1;vector-effect:none;fill:#ffffff;fill-opacity:1;fill-rule:nonzero;stroke:none;stroke-width:69.84913635;stroke-linecap:butt;stroke-linejoin:round;stroke-miterlimit:4;stroke-dasharray:none;stroke-dashoffset:0;stroke-opacity:1;paint-order:stroke markers fill;color-rendering:auto;image-rendering:auto;shape-rendering:auto;text-rendering:auto;enable-background:accumulate"
     d="m 232.991,183.0187 v 0.002 c -28.42605,-0.0137 -49.54737,27.83811 -42.18842,55.30161 l 54.9789,205.18368 v 9.9e-4 c 4.61952,17.23993 19.44439,29.44791 35.46023,32.03835 16.01585,2.59234 36.07581,-6.04882 44.86499,-21.7763 l 0.001,-0.002 4.01022,-7.17914 9.57071,12.54667 c 0.0871,0.11691 0.1751,0.23805 0.26247,0.35756 14.09758,18.01611 42.68024,22.56506 61.65296,7.44465 l 0.006,-0.006 20.72784,-16.51717 c 0.10801,-0.0781 0.21466,-0.1586 0.32199,-0.27829 18.19151,-14.85094 21.43849,-42.17208 7.09636,-60.93097 l -0.006,-0.0104 -12.44569,-16.32233 0.34194,-0.0781 c 36.35607,-9.7416 42.54803,-62.44805 10.01646,-80.67341 l 0.81754,0.46936 -173.24417,-103.3065 c -6.72556,-4.06047 -14.73752,-6.25084 -22.24754,-6.25472 z m 3.949,39.67799 c 1.47033,7.5e-4 2.97525,0.40953 4.38017,1.32797 l 173.24594,103.30532 c 6.90857,3.8686 5.41977,14.48624 -1.9852,16.47022 l -50.65833,13.57368 44.06184,57.79618 c 3.06349,4.00471 2.29451,9.62201 -1.43857,12.66969 l -20.73683,16.52262 c -3.86472,3.0815 -9.35745,2.21468 -12.38441,-1.65391 l -41.85813,-54.87786 -29.97736,53.65445 c -3.99531,7.14922 -14.11089,5.17314 -16.10404,-2.26645 L 228.50617,234.03539 c -1.63931,-6.11825 3.18321,-11.34234 8.43375,-11.33961 z"
     id="path826-2"
     inkscape:connector-curvature="0" />
</svg>
